<?xml version="1.0" standalone="no"?>
<!DOCTYPE svg PUBLIC "-//W3C//DTD SVG 20010904//EN"
 "http://www.w3.org/TR/2001/REC-SVG-20010904/DTD/svg10.dtd">
<svg version="1.0" xmlns="http://www.w3.org/2000/svg"
 width="1539.000000pt" height="1539.000000pt" viewBox="0 0 1539.000000 1539.000000"
 preserveAspectRatio="xMidYMid meet">
<metadata>
Created by potrace 1.11, written by Peter Selinger 2001-2013
</metadata>
<g transform="translate(0.000000,1539.000000) scale(0.100000,-0.100000)"
fill="#000000" stroke="none">
<path d="M11557 11944 c-1 -1 -36 -4 -77 -8 -88 -7 -116 -12 -190 -32 -318
-88 -591 -316 -726 -610 -38 -82 -78 -204 -88 -269 -3 -22 -8 -51 -11 -65 -8
-35 -8 -236 0 -290 18 -127 58 -256 113 -365 36 -72 99 -170 128 -199 15 -16
2 -32 -189 -224 -113 -114 -274 -276 -357 -361 -138 -141 -152 -153 -168 -139
-216 184 -382 297 -585 396 -286 140 -605 227 -907 247 -92 6 -280 7 -346 1
-83 -7 -176 -17 -197 -22 -12 -2 -39 -6 -62 -10 -144 -21 -375 -90 -548 -164
-273 -117 -513 -279 -747 -501 -19 -18 0 -32 -225 176 -117 108 -118 109 -285
265 -62 58 -122 113 -134 123 -12 10 -46 42 -76 70 -31 29 -109 102 -175 162
-261 242 -260 241 -246 259 18 22 48 73 67 116 9 19 22 49 30 65 20 44 52 172
60 235 11 98 8 186 -11 301 -18 105 -87 262 -162 368 -152 212 -367 342 -639
387 -68 11 -193 10 -269 -2 -116 -18 -123 -20 -221 -60 -277 -111 -490 -356
-564 -649 -40 -155 -33 -366 16 -519 21 -66 98 -226 122 -251 10 -11 25 -31
35 -45 54 -78 191 -194 297 -252 216 -117 481 -144 725 -74 102 30 261 113
313 163 7 7 16 13 20 13 4 0 35 -26 68 -58 34 -31 113 -104 175 -162 94 -87
161 -149 275 -255 6 -5 57 -53 114 -105 57 -52 117 -108 135 -125 17 -16 82
-77 145 -135 202 -186 220 -203 220 -212 0 -5 -22 -36 -49 -71 -261 -334 -442
-792 -488 -1237 -10 -96 -10 -380 0 -490 42 -467 233 -935 533 -1307 41 -50
91 -107 112 -127 l37 -36 -579 -579 -578 -578 -87 43 c-108 55 -189 75 -309
79 -106 3 -224 -19 -307 -56 -51 -23 -142 -76 -161 -94 -6 -5 -26 -24 -45 -40
-141 -125 -228 -311 -234 -505 -6 -172 24 -286 111 -425 227 -363 740 -449
1070 -179 148 120 228 258 270 464 17 87 -1 259 -38 359 -20 53 -28 68 -74
148 l-19 33 579 579 579 579 71 -57 c220 -177 529 -337 816 -422 88 -27 220
-58 271 -64 22 -3 44 -7 48 -9 3 -2 40 -7 81 -11 41 -3 89 -9 105 -11 73 -12
387 -5 495 11 14 2 45 6 70 10 90 13 106 16 144 26 21 6 41 8 44 5 3 -3 -2 -6
-10 -6 -14 0 -15 -5 -2 -47 8 -26 16 -57 19 -68 7 -34 21 -84 65 -240 23 -82
43 -154 44 -160 5 -20 20 -73 52 -194 19 -69 34 -125 34 -127 0 -1 -34 -21
-75 -43 -302 -166 -471 -465 -460 -816 4 -133 29 -236 86 -354 23 -48 44 -88
48 -91 3 -3 19 -24 35 -47 96 -142 310 -291 478 -333 113 -29 268 -40 358 -27
65 10 150 31 195 49 362 138 591 479 580 860 -4 102 -6 125 -26 203 -59 238
-239 459 -464 572 -88 45 -213 81 -302 89 -118 11 -136 11 -164 3 -35 -9 -56
5 -64 44 -7 28 -72 271 -178 656 -19 68 -40 127 -48 132 -11 7 -11 9 4 10 26
2 28 3 82 23 246 91 492 230 695 391 124 99 333 314 427 440 122 163 250 385
313 545 38 94 88 243 95 283 l8 39 46 -6 c25 -3 57 -8 71 -11 93 -18 446 -83
510 -94 66 -11 275 -49 310 -56 14 -3 63 -12 110 -20 47 -8 96 -17 110 -20 14
-3 77 -14 140 -26 63 -11 135 -25 161 -30 l45 -10 -1 -67 c0 -63 4 -110 20
-207 4 -22 20 -80 36 -130 145 -436 553 -730 1014 -729 173 0 321 36 480 116
209 104 373 271 475 483 83 170 105 275 104 490 0 112 -5 158 -23 229 -79 307
-271 550 -556 701 -62 32 -194 80 -250 89 -16 3 -52 10 -80 15 -69 14 -295 6
-381 -13 -187 -40 -378 -144 -514 -279 -129 -128 -178 -205 -272 -423 l-13
-31 -205 38 c-113 21 -216 40 -230 43 -30 5 -174 31 -250 45 -30 6 -68 13 -85
16 -16 2 -41 7 -55 10 -14 3 -74 14 -135 24 -60 11 -160 29 -220 40 -151 28
-141 26 -229 41 l-78 14 6 56 c26 212 26 448 2 630 -14 101 -18 127 -22 142
-5 16 -10 42 -19 88 -34 184 -144 469 -259 670 -52 93 -131 216 -146 230 -3 3
-17 21 -30 40 -13 19 -44 59 -69 88 l-44 53 69 68 c38 37 200 200 360 362
l290 294 80 -51 c271 -175 612 -224 923 -135 367 106 654 389 766 755 31 101
32 107 43 209 34 316 -67 634 -274 867 -27 30 -60 64 -74 76 -14 12 -38 34
-55 48 -141 125 -396 234 -589 252 -60 5 -156 10 -159 8z m-5396 -3889 c0 -11
1 -103 1 -203 l1 -184 38 45 c98 115 299 125 424 22 41 -33 87 -108 102 -165
3 -14 7 -151 8 -305 l2 -280 -81 0 -81 0 -2 260 c-2 296 -8 323 -73 375 -78
61 -207 56 -276 -11 -56 -54 -63 -98 -61 -377 1 -133 0 -243 -3 -243 -18 -4
-160 -4 -161 1 0 3 -1 247 -2 542 -2 614 -15 543 100 543 56 0 63 -2 64 -20z
m1905 16 c7 -1 11 -62 12 -193 0 -106 1 -200 1 -208 1 -8 14 1 32 23 63 77
161 117 270 112 35 -2 73 -6 84 -10 141 -53 225 -142 261 -280 20 -75 18 -191
-6 -266 -54 -168 -178 -266 -345 -274 -114 -5 -204 35 -266 119 -16 22 -29 33
-30 25 -1 -7 -1 -41 -1 -74 l0 -61 -76 2 c-43 1 -80 2 -84 3 -12 2 -10 1079 2
1083 8 2 110 2 146 -1z m-956 -541 c5 -279 10 -310 57 -358 76 -80 250 -72
311 15 39 57 44 96 45 357 l1 252 75 -2 c42 -1 79 -2 82 -3 12 -2 7 -800 -5
-804 -6 -2 -42 -3 -81 -3 l-70 1 -1 50 c-1 28 -2 56 -3 64 -1 9 -11 2 -24 -17
-51 -68 -119 -102 -216 -107 -114 -5 -219 42 -273 122 -53 78 -59 117 -61 417
-1 152 2 277 6 279 5 1 41 2 80 2 l72 -1 5 -264z m2465 -3255 c263 -43 511
-255 601 -515 147 -422 -82 -876 -511 -1013 -75 -24 -110 -29 -225 -32 -111
-2 -219 19 -324 65 -62 26 -168 97 -221 147 -259 245 -322 642 -152 946 64
114 178 239 265 287 15 8 29 17 32 20 13 13 170 82 170 75 0 -3 12 0 28 6 15
6 50 13 77 16 28 3 52 7 54 9 5 5 157 -3 206 -11z"/>
<path d="M8277 7659 c-148 -33 -219 -157 -194 -336 28 -195 271 -275 411 -137
49 49 76 119 76 200 0 124 -44 206 -133 248 -62 29 -108 36 -160 25z"/>
<path d="M9159 3981 c-18 -18 -29 -40 -29 -58 -1 -38 -1 -788 0 -836 0 -51 44
-97 92 -97 35 0 51 8 218 111 58 36 199 123 314 194 138 85 214 138 226 158
20 33 17 82 -7 109 -11 12 -325 211 -553 349 -191 116 -210 121 -261 70z"/>
<path d="M805 7793 c-32 -11 -67 -34 -97 -65 l-48 -47 0 59 0 59 -85 -1 -85 0
0 -408 0 -408 85 0 85 0 1 246 c0 136 2 254 4 263 20 106 95 168 203 169 81 0
138 -34 175 -105 20 -37 21 -58 24 -305 l2 -265 83 0 82 0 1 260 c1 229 4 265
20 300 38 84 107 121 207 112 70 -6 117 -35 147 -88 29 -51 29 -56 30 -335 l1
-252 83 2 82 1 2 280 c2 259 0 285 -19 342 -24 73 -82 138 -155 174 -69 33
-217 34 -283 1 -49 -24 -91 -59 -128 -107 -22 -27 -24 -28 -34 -12 -23 42 -75
90 -122 114 -67 34 -187 41 -261 16z"/>
<path d="M2238 7791 c-174 -57 -268 -196 -270 -402 -2 -177 78 -315 222 -383
56 -26 78 -31 162 -33 144 -4 246 37 322 130 30 37 72 114 64 118 -2 1 -43 2
-91 3 l-88 1 -22 -32 c-12 -17 -40 -41 -64 -53 -140 -70 -295 5 -328 158 -6
29 -4 32 17 33 13 0 152 1 311 1 l287 0 6 25 c4 14 4 55 1 92 -14 156 -82 258
-215 323 -83 40 -224 49 -314 19z m219 -142 c44 -14 107 -80 121 -127 23 -77
38 -72 -212 -72 l-224 0 7 33 c33 143 163 214 308 166z"/>
<path d="M3246 7792 c-31 -10 -67 -33 -97 -63 l-49 -48 1 42 c2 81 8 76 -85
75 l-85 0 1 -409 0 -408 84 1 c70 1 84 4 85 17 0 9 1 129 3 266 1 233 3 253
23 290 37 71 96 105 181 105 61 0 108 -19 145 -58 50 -52 57 -100 57 -372 l0
-248 83 2 82 1 1 258 2 259 28 56 c36 70 90 102 171 102 66 0 108 -17 149 -59
50 -51 56 -92 57 -369 l1 -250 83 0 83 -1 1 32 c0 18 0 145 0 283 0 276 -7
321 -66 398 -119 156 -391 153 -510 -6 -16 -21 -31 -38 -34 -38 -3 0 -16 17
-29 38 -64 103 -229 150 -366 104z"/>
<path d="M4760 7784 c-25 -12 -64 -42 -86 -68 l-40 -47 1 55 c1 31 -1 60 -4
65 -4 5 -42 9 -86 8 l-80 -2 0 -407 0 -407 85 2 85 2 1 255 c2 281 6 304 64
353 31 27 64 36 135 40 l40 2 1 88 1 87 -35 -2 c-19 -1 -56 -12 -82 -24z"/>
<path d="M4940 7790 c0 -8 83 -221 115 -295 7 -16 25 -61 40 -100 15 -38 33
-83 40 -100 60 -135 116 -297 110 -317 -6 -19 -48 -120 -105 -253 -4 -11 -10
-27 -13 -35 -3 -8 -12 -32 -21 -52 l-16 -38 89 0 88 0 53 128 c29 70 74 179
100 242 27 63 114 272 194 464 80 191 146 352 146 356 0 4 -39 6 -86 6 l-87
-1 -115 -302 c-64 -167 -119 -299 -123 -295 -4 4 -28 66 -54 137 -25 72 -52
144 -60 160 -7 17 -20 55 -30 85 -10 30 -21 60 -25 65 -3 6 -13 30 -20 55 -30
99 -28 97 -130 98 -49 1 -90 -3 -90 -8z"/>
</g>
</svg>
